<svg width="20" height="30" viewBox="0 0 20 30" fill="none" xmlns="http://www.w3.org/2000/svg">
<path d="M19.2103 15.161C14.8135 21.7046 5.18653 21.7046 0.789654 15.161C0.676407 14.9925 0.676407 14.7722 0.789654 14.6037C5.18653 8.06008 14.8135 8.06008 19.2103 14.6037C19.3236 14.7722 19.3236 14.9925 19.2103 15.161Z" fill="white" stroke="white"/>
<path d="M13.3109 14.75C13.3109 16.2452 11.8953 17.6 9.96094 17.6C8.02654 17.6 6.61094 16.2452 6.61094 14.75C6.61094 13.2548 8.02654 11.9 9.96094 11.9C11.8953 11.9 13.3109 13.2548 13.3109 14.75Z" fill="white" stroke="black" stroke-width="1.3"/>
<line x1="3.04088" y1="6.20389" x2="15.2064" y2="24.2963" stroke="white" stroke-width="1.5" stroke-linecap="round"/>
<line x1="4.28502" y1="5.36599" x2="16.4506" y2="23.4584" stroke="black" stroke-width="1.5" stroke-linecap="round"/>
</svg>
