<svg width="20" height="30" viewBox="0 0 20 30" fill="none" xmlns="http://www.w3.org/2000/svg">
<path d="M19 15C19 19.4183 14.9706 23 10 23C5.02944 23 1 19.4183 1 15C1 10.5817 5.02944 7 10 7C14.9706 7 19 10.5817 19 15Z" fill="black"/>
<path d="M0.374641 15.4399C0.148078 15.1027 0.148078 14.662 0.374641 14.3248V14.3248C4.96964 7.48636 15.0304 7.48636 19.6254 14.3248V14.3248C19.8519 14.662 19.8519 15.1027 19.6254 15.4399V15.4399C15.0304 22.2783 4.96964 22.2783 0.374641 15.4399V15.4399Z" fill="white"/>
<path d="M13.3109 14.75C13.3109 16.2452 11.8953 17.6 9.96094 17.6C8.02654 17.6 6.61094 16.2452 6.61094 14.75C6.61094 13.2548 8.02654 11.9 9.96094 11.9C11.8953 11.9 13.3109 13.2548 13.3109 14.75Z" fill="white" stroke="black" stroke-width="1.3"/>
<line x1="3.04088" y1="6.20389" x2="15.2064" y2="24.2963" stroke="white" stroke-width="1.5" stroke-linecap="round"/>
<line x1="4.28502" y1="5.36599" x2="16.4506" y2="23.4584" stroke="black" stroke-width="1.5" stroke-linecap="round"/>
</svg>
